<?xml version="1.0" standalone="no"?>
<!DOCTYPE svg PUBLIC "-//W3C//DTD SVG 20010904//EN"
 "http://www.w3.org/TR/2001/REC-SVG-20010904/DTD/svg10.dtd">
<svg version="1.0" xmlns="http://www.w3.org/2000/svg"
 width="2319.000000pt" height="2319.000000pt" viewBox="0 0 2319.000000 2319.000000"
 preserveAspectRatio="xMidYMid meet">
<metadata>
Created by potrace 1.11, written by Peter Selinger 2001-2013
</metadata>
<g transform="translate(0.000000,2319.000000) scale(0.100000,-0.100000)"
fill="#000000" stroke="none">
<path d="M11030 22009 c-2057 -113 -4053 -839 -5695 -2073 -403 -303 -718
-578 -1111 -970 -392 -393 -667 -708 -970 -1111 -1164 -1549 -1882 -3426
-2048 -5355 -49 -567 -49 -1243 0 -1810 166 -1929 884 -3806 2048 -5355 303
-403 578 -718 970 -1111 471 -471 867 -805 1382 -1167 1596 -1121 3486 -1772
5449 -1877 244 -13 836 -13 1080 0 1963 105 3853 756 5449 1877 515 362 911
696 1382 1167 392 393 667 708 970 1111 1164 1549 1882 3426 2048 5355 37 422
48 1039 26 1445 -106 1967 -755 3852 -1877 5449 -362 515 -696 911 -1167 1382
-471 471 -867 805 -1382 1167 -1596 1121 -3486 1772 -5449 1877 -217 11 -889
11 -1105 -1z m2725 -4358 c39 -6 93 -13 120 -17 28 -3 54 -10 60 -15 5 -5 26
-9 46 -9 21 0 40 -4 43 -9 3 -5 23 -11 43 -14 72 -11 108 -20 120 -29 7 -6 19
-8 28 -5 8 4 17 2 20 -3 4 -6 17 -10 30 -10 13 0 27 -4 30 -10 3 -5 15 -10 26
-10 10 0 28 -4 39 -10 11 -5 29 -14 40 -20 11 -5 29 -10 40 -10 11 0 20 -4 20
-10 0 -5 8 -10 18 -10 10 0 36 -9 58 -19 22 -11 52 -23 67 -26 15 -4 30 -11
33 -16 3 -5 14 -9 25 -9 10 0 19 -4 19 -10 0 -5 9 -10 19 -10 11 0 21 -4 23
-8 2 -4 41 -27 88 -50 100 -49 144 -74 148 -84 2 -5 8 -8 13 -8 4 0 54 -30
111 -67 135 -90 137 -92 199 -141 30 -23 77 -60 104 -81 62 -48 294 -276 357
-351 131 -155 154 -183 188 -235 63 -94 96 -140 102 -143 5 -2 8 -8 8 -14 0
-5 13 -29 30 -53 26 -38 64 -107 138 -250 20 -39 67 -141 82 -180 4 -11 15
-36 23 -55 25 -56 44 -111 63 -175 9 -33 21 -64 26 -69 4 -6 8 -22 8 -37 0
-15 5 -31 10 -34 6 -3 10 -19 10 -35 0 -16 5 -32 10 -35 6 -3 10 -19 10 -34 0
-15 4 -31 9 -37 5 -5 12 -29 15 -54 3 -25 8 -58 11 -75 21 -131 27 -170 37
-240 13 -103 13 -656 0 -760 -6 -44 -16 -111 -22 -150 -6 -38 -12 -81 -14 -95
-1 -14 -5 -32 -8 -40 -4 -8 -8 -28 -11 -45 -2 -16 -7 -37 -11 -45 -4 -11 8
-22 49 -40 30 -14 55 -28 55 -32 0 -5 9 -8 20 -8 11 0 20 -3 20 -7 0 -5 10
-13 23 -19 45 -21 142 -77 158 -90 8 -8 20 -14 26 -14 5 0 18 -9 28 -20 10
-11 22 -20 27 -20 8 0 72 -44 88 -60 3 -3 32 -25 65 -50 199 -149 383 -331
537 -533 26 -34 51 -67 55 -72 54 -68 85 -114 102 -150 5 -12 16 -27 25 -34 9
-7 16 -18 16 -23 0 -6 8 -22 19 -36 39 -57 186 -358 212 -437 7 -22 17 -44 21
-49 4 -6 8 -20 8 -33 0 -13 5 -23 10 -23 6 0 10 -11 10 -24 0 -14 5 -28 10
-31 6 -3 10 -17 10 -30 0 -13 5 -27 10 -30 6 -3 10 -17 10 -31 0 -13 4 -32 10
-42 9 -16 25 -93 36 -172 3 -19 9 -44 14 -55 5 -11 12 -40 15 -65 3 -25 10
-76 16 -115 15 -94 23 -694 10 -720 -6 -11 -12 -47 -15 -80 -8 -91 -16 -148
-26 -170 -5 -11 -11 -36 -14 -55 -11 -79 -27 -156 -36 -172 -6 -10 -10 -25
-10 -33 0 -8 -4 -23 -9 -33 -5 -9 -15 -37 -22 -62 -7 -25 -16 -49 -21 -54 -4
-6 -8 -18 -8 -28 0 -10 -4 -26 -9 -36 -17 -32 -39 -87 -53 -129 -7 -24 -16
-43 -20 -43 -5 0 -8 -9 -8 -20 0 -11 -4 -20 -10 -20 -5 0 -10 -6 -10 -12 0
-16 -92 -202 -102 -206 -5 -2 -8 -8 -8 -14 0 -5 -13 -29 -30 -53 -16 -24 -30
-48 -30 -53 0 -5 -9 -17 -20 -27 -11 -10 -20 -22 -20 -27 0 -11 -122 -182
-165 -232 -5 -6 -32 -38 -60 -71 -63 -76 -265 -278 -330 -330 -28 -22 -59 -48
-70 -58 -37 -33 -165 -127 -173 -127 -5 0 -16 -8 -25 -17 -9 -10 -33 -27 -54
-38 -21 -11 -47 -28 -57 -37 -11 -10 -25 -18 -32 -18 -7 0 -14 -3 -16 -7 -7
-18 -360 -193 -388 -193 -6 0 -30 -9 -52 -20 -23 -11 -48 -20 -55 -20 -7 0
-22 -5 -33 -10 -11 -6 -29 -15 -40 -20 -11 -6 -29 -10 -39 -10 -11 0 -23 -4
-26 -10 -3 -6 -17 -10 -31 -10 -13 0 -32 -4 -42 -10 -9 -5 -44 -14 -77 -20
-33 -6 -80 -16 -105 -21 -25 -6 -65 -13 -90 -16 -25 -3 -49 -9 -55 -14 -5 -5
-37 -9 -71 -9 -35 0 -66 -4 -69 -10 -8 -14 -632 -14 -640 0 -3 6 -35 10 -70
10 -35 0 -67 4 -70 10 -3 5 -28 10 -54 10 -26 0 -51 4 -56 9 -9 8 -50 16 -128
25 -15 1 -30 6 -34 9 -3 4 -20 7 -36 7 -27 0 -173 -143 -1241 -1214 -666 -667
-1224 -1220 -1241 -1227 -16 -8 -32 -16 -35 -19 -3 -3 -18 -11 -35 -19 -16 -7
-38 -17 -47 -22 -10 -5 -27 -9 -37 -9 -11 0 -23 -4 -26 -10 -4 -6 -68 -10
-160 -10 -92 0 -156 4 -160 10 -3 6 -15 10 -26 10 -10 0 -27 4 -37 9 -105 52
-131 68 -166 95 -22 17 -265 258 -540 536 -1185 1196 -1882 1890 -1898 1890
-9 0 -20 -4 -23 -10 -3 -5 -19 -10 -34 -10 -15 0 -31 -3 -34 -7 -4 -3 -19 -8
-34 -9 -60 -7 -109 -16 -128 -24 -11 -5 -40 -12 -65 -15 -25 -3 -76 -11 -115
-17 -92 -14 -678 -14 -770 0 -38 6 -90 14 -115 17 -25 3 -54 10 -65 15 -11 5
-36 11 -55 14 -67 9 -155 27 -175 35 -11 5 -40 14 -65 21 -46 13 -82 26 -112
41 -10 5 -26 9 -36 9 -10 0 -22 4 -27 9 -6 4 -32 16 -60 26 -112 39 -317 141
-427 212 -63 41 -81 51 -103 62 -12 5 -27 16 -34 25 -7 9 -17 16 -22 16 -8 0
-174 123 -189 139 -3 3 -32 29 -65 56 -108 91 -298 287 -385 399 -8 10 -27 33
-42 51 -16 18 -28 35 -28 39 0 3 -20 32 -45 65 -25 32 -45 61 -45 64 0 3 -18
32 -39 65 -67 100 -171 295 -171 319 0 7 -4 13 -10 13 -5 0 -10 9 -10 20 0 11
-3 20 -8 20 -4 0 -13 19 -20 42 -14 43 -36 98 -53 130 -5 10 -9 26 -9 36 0 10
-4 22 -8 27 -5 6 -14 30 -21 55 -7 25 -17 53 -22 62 -5 10 -9 27 -9 37 0 11
-4 22 -9 26 -5 3 -13 34 -16 70 -4 36 -11 68 -16 71 -5 3 -9 23 -9 44 0 21 -4
42 -10 45 -5 3 -10 28 -10 55 0 27 -4 52 -10 55 -5 3 -10 35 -10 70 0 35 -5
67 -10 70 -13 8 -14 637 -1 650 5 6 12 39 14 75 7 83 24 177 57 310 6 25 11
55 11 67 -1 12 4 25 9 28 6 3 10 19 10 35 0 16 5 32 10 35 6 3 10 15 10 26 0
19 4 28 28 76 7 13 12 31 12 41 0 10 4 22 8 27 4 6 14 28 21 50 26 79 173 380
212 437 11 14 19 30 19 36 0 5 7 16 16 23 9 7 20 22 25 34 17 36 48 82 102
150 4 5 29 38 55 72 140 183 369 415 496 502 12 8 23 18 26 21 6 8 139 105
191 140 43 28 47 44 60 240 8 134 31 314 49 395 6 28 13 64 16 80 3 17 9 39
14 50 4 11 13 40 20 65 6 25 16 53 21 62 5 10 9 27 9 37 0 11 4 22 9 25 4 3
11 24 15 46 3 23 10 49 15 58 5 9 13 28 19 42 9 23 20 48 71 163 51 113 97
206 121 242 14 22 34 57 45 78 11 20 23 37 27 37 5 0 8 5 8 10 0 6 24 45 52
86 29 42 60 85 68 97 44 66 193 238 290 336 104 104 264 244 334 291 13 8 42
29 66 45 24 17 50 35 58 40 9 6 25 18 36 28 11 9 26 17 33 17 7 0 13 3 13 8 0
4 10 12 23 18 12 6 65 35 117 65 88 50 204 109 215 109 3 0 27 9 53 21 46 21
70 31 115 48 12 4 33 13 47 19 44 19 120 42 140 42 10 0 22 5 25 10 3 6 19 10
35 10 16 0 32 5 35 10 3 6 19 10 35 10 16 0 32 5 35 10 3 6 23 10 44 10 20 0
41 4 46 9 6 5 28 12 50 15 22 3 69 10 105 16 177 29 610 39 800 19 47 -5 110
-11 140 -14 30 -3 64 -10 75 -15 11 -5 38 -11 60 -15 22 -3 57 -8 78 -11 20
-4 40 -10 43 -15 3 -5 15 -9 26 -9 22 0 80 -16 108 -30 9 -4 36 -11 60 -15 24
-4 52 -11 62 -16 10 -5 27 -13 38 -19 11 -5 26 -10 34 -10 8 0 34 -10 58 -21
75 -37 85 -41 104 -37 10 2 41 35 69 75 53 76 82 114 154 203 58 70 331 343
396 395 28 22 55 44 61 50 31 27 224 168 244 179 18 8 41 22 97 59 24 15 47
27 53 27 5 0 10 3 10 8 0 4 10 12 23 18 12 6 69 35 127 65 58 30 121 61 140
68 19 8 51 21 70 29 67 27 85 35 110 45 14 5 33 13 42 18 10 5 27 9 37 9 11 0
23 5 26 10 3 6 17 10 30 10 13 0 27 5 30 10 3 6 16 10 29 10 12 0 26 3 30 7 6
7 11 8 79 19 20 3 40 10 43 15 3 5 20 9 39 9 19 0 37 5 40 10 3 6 24 10 45 10
21 0 42 5 45 10 3 6 28 10 55 10 27 0 52 5 55 10 3 6 34 10 68 10 34 0 69 5
77 10 20 13 713 6 805 -9z"/>
<path d="M8838 10979 c-10 -5 -18 -7 -18 -4 0 11 -83 -37 -117 -68 -47 -43
-96 -113 -113 -162 -16 -48 -17 -222 -1 -238 6 -6 11 -18 11 -26 0 -50 99
-148 276 -271 157 -109 213 -147 237 -159 15 -7 27 -17 27 -22 0 -5 4 -9 10
-9 5 0 41 -20 79 -45 38 -25 74 -45 80 -45 6 0 11 -4 11 -10 0 -5 5 -10 11
-10 6 0 23 -8 37 -19 31 -22 69 -43 172 -97 41 -21 77 -42 78 -46 2 -5 12 -8
22 -8 10 0 20 -3 22 -7 3 -8 34 -24 168 -86 179 -83 206 -95 230 -101 33 -10
56 -19 108 -45 24 -11 50 -21 58 -21 8 0 23 -4 34 -10 11 -5 29 -14 40 -20 11
-5 29 -10 39 -10 11 0 22 -4 26 -9 3 -6 26 -13 50 -17 25 -3 48 -10 51 -15 3
-5 16 -9 29 -9 13 0 27 -4 30 -10 3 -5 19 -10 35 -10 16 0 32 -4 35 -10 3 -5
19 -10 35 -10 16 0 32 -4 35 -10 3 -5 19 -10 35 -10 16 0 32 -4 35 -10 3 -5
21 -10 40 -10 19 0 36 -4 39 -9 3 -5 39 -12 78 -16 40 -4 78 -11 83 -15 10 -8
54 -15 160 -26 28 -3 59 -9 70 -14 22 -10 75 -15 330 -30 209 -12 218 -12 435
0 265 15 324 21 335 31 5 5 32 9 60 9 28 0 55 4 60 9 6 5 28 11 50 14 99 14
194 33 201 40 4 4 18 7 30 7 13 0 33 4 46 9 13 5 43 14 68 21 25 7 53 16 62
21 10 5 26 9 36 9 10 0 22 4 27 8 6 5 37 17 70 26 59 17 72 22 128 45 15 6 39
16 55 22 15 6 35 15 44 20 10 5 25 9 33 9 8 0 15 5 15 10 0 6 7 10 15 10 8 0
23 4 33 10 30 17 132 60 141 60 5 0 11 4 13 8 2 4 28 20 58 35 86 42 198 104
230 127 15 11 31 20 34 20 3 0 37 20 76 45 39 25 74 45 79 45 5 0 11 4 13 9 2
7 78 60 137 96 17 11 93 66 101 75 3 3 41 32 85 65 44 33 82 62 85 65 3 3 27
23 55 45 66 53 98 90 125 145 13 25 27 54 33 64 5 11 9 62 9 115 0 82 -4 104
-26 154 -41 89 -160 197 -218 197 -10 0 -18 5 -18 10 0 6 -40 10 -99 10 -56 0
-103 -4 -106 -10 -3 -5 -13 -10 -21 -10 -25 0 -101 -53 -206 -145 -15 -13 -40
-32 -55 -42 -16 -10 -30 -20 -33 -23 -3 -3 -21 -17 -40 -30 -19 -13 -37 -27
-40 -30 -10 -12 -140 -100 -148 -100 -5 0 -17 -9 -27 -20 -10 -11 -22 -20 -26
-20 -4 0 -27 -13 -51 -28 -24 -16 -59 -38 -78 -48 -19 -10 -37 -22 -40 -25
-12 -14 -402 -200 -470 -224 -80 -28 -114 -42 -142 -56 -10 -5 -27 -9 -37 -9
-11 0 -23 -4 -26 -10 -3 -5 -17 -10 -30 -10 -13 0 -27 -4 -30 -10 -3 -5 -19
-10 -35 -10 -16 0 -31 -4 -34 -9 -3 -5 -33 -12 -66 -16 -33 -4 -63 -11 -66
-16 -3 -5 -22 -9 -43 -9 -20 0 -41 -4 -46 -9 -10 -9 -48 -15 -160 -27 -27 -3
-59 -9 -70 -14 -68 -30 -777 -29 -809 1 -6 5 -36 9 -67 9 -32 0 -61 5 -64 10
-3 6 -28 10 -55 10 -27 0 -52 5 -55 10 -3 6 -24 10 -45 10 -21 0 -41 4 -44 9
-3 4 -33 11 -67 15 -33 4 -70 11 -82 16 -12 4 -42 13 -67 20 -25 7 -53 16 -62
21 -10 5 -27 9 -37 9 -11 0 -23 5 -26 10 -3 6 -15 10 -26 10 -10 0 -29 5 -42
12 -48 24 -57 28 -76 28 -11 0 -22 4 -25 9 -4 5 -24 12 -46 16 -22 4 -40 11
-40 16 0 5 -7 9 -16 9 -8 0 -45 14 -82 31 -37 17 -76 35 -87 39 -67 27 -381
186 -395 200 -3 3 -18 12 -35 20 -16 8 -60 34 -97 57 -36 24 -69 43 -73 43 -3
0 -15 9 -27 20 -12 11 -28 20 -35 20 -7 0 -13 4 -13 8 0 4 -29 25 -65 47 -36
22 -65 43 -65 48 0 4 -4 7 -10 7 -5 0 -37 21 -71 48 -33 26 -70 52 -80 58 -11
6 -32 23 -47 36 -44 41 -105 78 -129 78 -12 0 -25 5 -28 10 -8 13 -175 12
-197 -1z"/>
</g>
</svg>
